<?xml version="1.0" encoding="UTF-8" standalone="no"?>
<svg
   xmlns:dc="http://purl.org/dc/elements/1.1/"
   xmlns:cc="http://creativecommons.org/ns#"
   xmlns:rdf="http://www.w3.org/1999/02/22-rdf-syntax-ns#"
   xmlns:svg="http://www.w3.org/2000/svg"
   xmlns="http://www.w3.org/2000/svg"
   xmlns:xlink="http://www.w3.org/1999/xlink"
   xmlns:sodipodi="http://sodipodi.sourceforge.net/DTD/sodipodi-0.dtd"
   xmlns:inkscape="http://www.inkscape.org/namespaces/inkscape"
   inkscape:version="1.0 (4035a4f, 2020-05-01)"
   sodipodi:docname="franco-american-logo-text.svg"
   viewBox="0 0 719 178"
   height="178"
   width="719"
   id="svg224"
   version="1.1">
  <metadata
     id="metadata230">
    <rdf:RDF>
      <cc:Work
         rdf:about="">
        <dc:format>image/svg+xml</dc:format>
        <dc:type
           rdf:resource="http://purl.org/dc/dcmitype/StillImage" />
        <dc:title></dc:title>
      </cc:Work>
    </rdf:RDF>
  </metadata>
  <defs
     id="defs228" />
  <sodipodi:namedview
     inkscape:current-layer="g232"
     inkscape:window-maximized="0"
     inkscape:window-y="23"
     inkscape:window-x="0"
     inkscape:cy="89"
     inkscape:cx="221.76761"
     inkscape:zoom="2"
     showgrid="false"
     id="namedview226"
     inkscape:window-height="729"
     inkscape:window-width="1280"
     inkscape:pageshadow="2"
     inkscape:pageopacity="0"
     guidetolerance="10"
     gridtolerance="10"
     objecttolerance="10"
     borderopacity="1"
     bordercolor="#666666"
     pagecolor="#ffffff" />
  <g
     id="g232"
     inkscape:label="Image"
     inkscape:groupmode="layer">
    <path
       id="path236"
       d="m 609.5,174.50852 c -0.55,-0.18347 -2.25483,-0.61086 -3.78851,-0.94977 l -2.78852,-0.61619 0.28852,-8.72128 c 0.27436,-8.29342 0.4037,-8.73759 2.63637,-9.05366 1.41522,-0.20034 3.29884,0.56102 4.74186,1.91667 1.91058,1.7949 3.5576,2.24904 8.15646,2.24904 6.56519,0 10.25382,-1.5436 10.25382,-4.29096 0,-2.08067 -2.61515,-3.14607 -12.5,-5.09243 -11.60928,-2.28591 -17.84043,-7.36883 -19.06791,-15.55422 -0.87499,-5.83488 0.76369,-11.41017 4.65697,-15.84437 4.79141,-5.45712 10.07915,-7.43344 22.57628,-8.43802 7.45994,-0.59966 12.58216,-1.57157 15.81175,-3.00017 6.07092,-2.68546 7.66578,-2.65444 10.3486,0.20129 2.93047,3.11935 2.73816,4.89256 -0.81559,7.51996 l -2.9899,2.21053 1.9899,3.71272 c 2.95991,5.52255 2.71034,13.23269 -0.5539,17.11202 l -2.54379,3.02313 3.64232,3.33794 c 2.90029,2.65792 3.74789,4.27449 4.16049,7.93502 1.60566,14.24541 -11.01133,22.92695 -33.07056,22.75528 C 615.0651,174.87763 610.05,174.69199 609.5,174.50852 Z m 26,-4.05405 c 10.19574,-2.88 15.48927,-8.36939 15.49626,-16.06961 0.004,-4.80631 -2.48675,-8.51696 -6.96237,-10.37082 -3.68137,-1.52488 -3.85771,-3.24423 -0.5547,-5.40845 6.00906,-3.93729 6.76351,-11.02169 1.93196,-18.14138 l -2.53596,-3.73695 3.63996,-3.00036 c 3.20687,-2.64337 3.46459,-3.17573 2.16606,-4.47426 -1.29853,-1.29854 -2.15226,-1.2201 -7.17527,0.65925 -3.49293,1.30687 -9.8575,2.46725 -16.43096,2.99565 -10.94578,0.87987 -15.35933,2.31105 -19.91999,6.45943 -7.40278,6.73357 -6.71653,18.94287 1.36225,24.23628 1.437,0.94156 7.17647,2.78809 12.75439,4.10339 5.57792,1.31531 10.72367,2.8745 11.43502,3.46486 1.39896,1.16104 1.71782,5.64693 0.52804,7.4288 -2.61993,3.9237 -16.41157,4.80865 -21.98469,1.41066 L 606,158.0294 v 6.43999 6.43998 l 3.25,0.53126 c 7.1906,1.17539 9.49877,1.30805 15.25,0.87646 3.3,-0.24764 8.25,-1.08582 11,-1.86262 z M 621.51323,137.49255 C 616.82213,135.82207 615,133.6725 615,129.80887 c 0,-5.00653 5.91483,-8.80001 11.52544,-7.39184 5.58409,1.40152 7.85704,6.45465 5.36429,11.92565 -0.86025,1.88804 -4.89094,4.89369 -6.18678,4.61343 -0.11162,-0.0241 -1.997,-0.68275 -4.18972,-1.46356 z m 6.65803,-3.14754 C 632.02339,130.85888 629.40821,125 624,125 c -5.23237,0 -7.85677,5.07251 -4.25,8.21452 3.46834,3.02142 5.96192,3.35617 8.42126,1.13049 z m -336.99983,22.42641 -5.32857,-2.07844 0.82857,-12.09649 C 287.12714,135.94342 287.5,125.55714 287.5,119.51587 v -10.98413 l -2.75,-1.32043 c -3.09567,-1.48642 -3.69076,-4.80642 -1,-5.579 0.9625,-0.27635 6.7,-0.79135 12.75,-1.14445 6.05,-0.3531 11.75197,-0.85136 12.67104,-1.107252 1.86442,-0.519103 1.7749,-0.610289 8.95333,9.119392 2.84048,3.85 5.473,7.35098 5.85003,7.77996 0.37703,0.42897 3.21674,-3.02361 6.31045,-7.67241 l 5.62494,-8.45237 5.60858,-0.700743 c 6.0941,-0.761407 13.19614,-0.139931 14.61498,1.278913 2.93418,2.93418 5.73307,34.64981 4.17127,47.26665 l -0.80462,6.5 -8,2.16796 c -9.55558,2.58952 -11.56013,2.73977 -13.8838,1.04067 -1.68462,-1.23183 -1.68669,-1.92591 -0.0448,-15.05372 1.01226,-8.09379 1.35204,-14.11844 0.82492,-14.62688 -0.51685,-0.49855 -3.64796,2.89684 -7.39628,8.02056 -3.575,4.8868 -7.18089,8.90002 -8.0131,8.91825 -0.8322,0.0182 -4.14861,-3.33148 -7.3698,-7.44382 -8.98942,-11.47638 -9.05928,-11.4935 -8.25409,-2.02302 0.37409,4.4 0.9503,10.55854 1.28046,13.68565 l 0.6003,5.68566 -3.87188,1.62921 c -5.90603,2.48515 -8.40164,2.53276 -14.20046,0.2709 z m 11.32833,-2.33577 3.74401,-1.56434 -0.58506,-5.68566 c -0.32179,-3.12711 -0.88468,-9.84815 -1.25087,-14.93565 -0.62054,-8.62115 -0.53807,-9.24995 1.21318,-9.2492 1.15132,4.9e-4 4.74159,3.48587 9.27087,9 4.06554,4.94956 7.74494,8.9992 8.17645,8.9992 0.4315,0 3.85515,-4.25629 7.60811,-9.45843 4.00347,-5.54939 7.44348,-9.3679 8.32355,-9.23939 2.00265,0.29243 2.50647,12.19796 0.99833,23.59146 -0.71266,5.38394 -0.76555,8.73914 -0.14752,9.35717 0.61804,0.61804 3.72321,0.31293 8.65991,-0.8509 6.29722,-1.48457 7.85935,-2.24306 8.59283,-4.17227 2.0096,-5.28564 0.62893,-34.07999 -2.12439,-44.30505 L 353.92291,102 h -7.76111 -7.76112 l -6.23684,9 c -3.43027,4.95 -6.90379,9 -7.71893,9 -0.81515,0 -4.48587,-4.08024 -8.15715,-9.0672 l -6.67506,-9.06721 -4.55635,0.54214 c -2.50599,0.29817 -8.07447,0.83416 -12.37439,1.19107 -6.80899,0.56517 -7.51886,0.79793 -5.5,1.80336 2.25715,1.1241 2.32527,1.5656 2.59308,16.80704 0.15128,8.60894 -0.11091,18.88415 -0.58263,22.8338 l -0.85767,7.18118 4.08263,1.81727 c 5.12665,2.28199 5.52682,2.29764 10.08239,0.3942 z m 77.50563,2.89636 C 365.28651,152.18235 358.10525,137.98885 363.89985,125.5 c 4.44619,-9.58268 13.95342,-14.79208 27.09656,-14.84733 10.27564,-0.0432 15.5297,1.35356 21.21154,5.63893 15.00828,11.31957 9.89911,35.70628 -8.63945,41.23712 -6.37138,1.90086 -17.84149,1.8051 -23.56311,-0.19671 z m 25.95587,-4.17062 c 3.6264,-1.78388 6.4822,-4.1391 8.5,-7.01007 2.75099,-3.91418 3.03874,-5.0567 3.03874,-12.0653 0,-6.94617 -0.28896,-8.12055 -2.81201,-11.42844 -8.5357,-11.19088 -31.02849,-12.90568 -42.33523,-3.22753 -5.05351,4.32562 -7.35276,8.98679 -7.35276,14.90598 0,5.87934 1.38027,9.38742 5.31133,13.49929 4.08424,4.27208 7.83418,6.25761 14.68867,7.7774 7.34051,1.62755 14.33139,0.80999 20.96126,-2.45133 z M 384.4,143.6 c -7.23368,-7.23368 -2.76176,-17.51716 7.78731,-17.90742 10.78396,-0.39895 16.46825,6.90899 12.2645,15.76773 -1.9159,4.03747 -5.06122,5.53969 -11.59886,5.53969 -4.41316,0 -5.48345,-0.4305 -8.45295,-3.4 z m 16.35,-2.122 c 4.41024,-5.07575 1.62476,-11.65305 -5.54208,-13.08642 -3.74253,-0.7485 -8.85973,1.0893 -10.24614,3.67983 -2.41811,4.51829 -0.0657,10.24644 5.03822,12.26821 3.01679,1.19501 8.49153,-0.26235 10.75,-2.86162 z m 45.37575,16.23362 -4.37424,-1.0482 -7.35114,-15.58171 c -9.83348,-20.84337 -9.58207,-20.4164 -12.4154,-21.08526 -1.93378,-0.4565 -2.48497,-1.22379 -2.48497,-3.45923 0,-2.8167 0.19461,-2.91793 10,-5.20159 5.5,-1.28094 10.83262,-2.21798 11.85026,-2.08231 1.33682,0.17823 2.47726,2.18916 4.10971,7.24668 1.2427,3.85 3.36425,9.46929 4.71457,12.48731 l 2.45513,5.4873 3.89905,-9.85126 3.89906,-9.85127 5.03611,0.60527 c 2.76986,0.3329 5.83242,0.60918 6.80569,0.61396 1.25382,0.006 2.97724,2.64497 5.9131,9.05381 2.7622,6.02976 4.41396,8.61336 4.95476,7.75 0.44618,-0.71232 2.69129,-6.35762 4.98913,-12.54512 4.73768,-12.75736 4.51604,-12.61348 14.87343,-9.65553 8.63964,2.46738 9.85632,2.67464 11.65324,1.9851 1.42443,-0.5466 1.11613,-1.23143 -1.98332,-4.40555 -6.43458,-6.58961 -5.62322,-7.48377 9.08008,-10.006816 7.0125,-1.203323 13.0875,-2.183213 13.5,-2.177532 0.4125,0.0057 0.75366,1.472828 0.75814,3.260328 0.007,2.62354 -0.88558,4.02848 -4.6283,7.28866 l -4.63643,4.03866 4.12829,-0.39369 c 3.81182,-0.36352 4.1283,-0.20766 4.1283,2.03316 v 2.42686 l 9.75,-1.33481 c 21.36558,-2.92502 20.25,-2.92619 20.25,0.0211 v 2.60977 l 3.63955,-2.46987 c 2.92153,-1.9826 4.88747,-2.46986 9.9652,-2.46986 5.60849,0 6.71468,0.34157 9.75697,3.01273 1.88722,1.657 4.18189,4.88862 5.09927,7.18138 2.23905,5.59594 3.43937,17.63513 2.66869,26.76694 L 595.5,155.42209 587,157.1653 c -12.25701,2.51371 -11.37808,2.9627 -10.61808,-5.42417 C 577.62703,138.0008 574.08956,129 567.44424,129 H 565 v 13.88478 13.88477 l -5.75,0.65515 c -3.1625,0.36032 -7.6625,0.91327 -10,1.22876 -3.68293,0.49709 -4.25117,0.32498 -4.25878,-1.28992 -0.0308,-6.54813 -2.19489,-30.4062 -3.04402,-33.55964 -0.82174,-3.0517 -1.49455,-3.8039 -3.40241,-3.8039 -1.30797,0 -2.6051,-0.5625 -2.88251,-1.25 -0.27741,-0.6875 -0.53991,7.60512 -0.58333,18.42804 L 535,156.85609 l -5.25,0.63181 c -2.8875,0.34749 -7.275,0.71737 -9.75,0.82195 L 515.5,158.5 514.76644,146 c -1.05216,-17.92913 -3.09873,-26 -6.59296,-26 -0.37601,0 -1.77005,2.8125 -3.09786,6.25 -1.3278,3.4375 -5.2792,11.98299 -8.78087,18.98997 -7.18569,14.37886 -7.81149,14.85781 -16.78844,12.84886 l -5.28003,-1.18162 -3.11314,-6.96241 C 469.40091,146.11548 468,142.53636 468,141.9912 c 0,-2.93811 -2.01521,-0.0718 -4.95418,7.0466 -1.82521,4.42079 -4.12762,8.47079 -5.11645,9 -2.18852,1.17126 -5.99341,1.06612 -11.80362,-0.32618 z M 461.5,145.44978 c 2.52947,-5.96688 4.55145,-9.43198 5.5,-9.42543 0.93976,0.006 2.80722,3.20448 5,8.56244 1.925,4.70365 3.95,8.92406 4.5,9.37868 0.55,0.45463 2.73195,1.29938 4.84879,1.87723 3.45423,0.94293 4.08721,0.81221 6.17459,-1.27517 4.4327,-4.4327 17.78908,-34.12676 17.27728,-38.41107 -0.25528,-2.13701 -1.06655,-2.6885 -5.37513,-3.65394 l -5.07448,-1.13707 -2.31836,6.56728 C 487.97853,129.41702 484.21635,137 482.57275,137 c -0.95208,0 -3.27628,-3.4319 -6.00858,-8.87224 C 471.93133,118.90324 470.95635,118 465.63194,118 c -3.10364,0 -3.32889,0.29893 -7.15817,9.5 -2.8528,6.85478 -4.43907,9.5 -5.69688,9.5 -2.05812,0 -5.3339,-6.08226 -9.2905,-17.25 -1.51015,-4.2625 -3.10887,-7.75 -3.55271,-7.75 -0.44384,0 -4.4902,0.87971 -8.99192,1.95492 -7.93741,1.8958 -10.8675,3.04508 -7.76341,3.04508 2.5691,0 4.38993,2.93614 12.40285,20 4.26148,9.075 7.86095,16.64941 7.99882,16.83202 0.90002,1.19205 10.21087,2.71462 11.91998,1.94922 1.24241,-0.55639 3.51517,-4.46988 6,-10.33146 z m 67.25,9.56123 3.25,-0.011 v -21.13592 -21.13593 l -4.5,0.6168 c -3.86661,0.52997 -4.5,0.36836 -4.5,-1.14824 0,-0.97077 2.46387,-4.19829 5.47526,-7.17228 3.01139,-2.97398 5.31737,-5.565134 5.12439,-5.75811 -0.35154,-0.351547 -17.8433,2.50808 -20.52623,3.35572 -0.99479,0.31429 0.0247,1.92412 3.36816,5.31865 4.90158,4.97641 5.23335,7.05931 1.1244,7.05931 -3.36625,0 -8.56598,1.14598 -8.56598,1.88787 0,0.35083 0.99836,1.08208 2.21857,1.625 3.11383,1.38547 4.63575,7.43532 5.99688,23.83837 l 1.14938,13.85124 3.56758,-0.59023 c 1.96218,-0.32463 5.03009,-0.59519 6.81759,-0.60124 z m 28.875,-0.011 H 562 v -13.46482 c 0,-12.66584 0.12492,-13.53167 2.1053,-14.59153 2.86814,-1.53499 8.12769,-0.39038 10.66816,2.32166 3.33556,3.56083 4.22654,7.22194 4.22654,17.36718 0,8.59383 0.16731,9.44941 1.75,8.9492 0.9625,-0.3042 3.90829,-0.95531 6.54619,-1.44691 2.63791,-0.49161 5.11291,-1.21249 5.5,-1.60197 1.17357,-1.1808 0.67557,-22.73934 -0.62917,-27.23734 -2.74945,-9.47848 -10.40815,-14.00271 -18.48344,-10.91873 -2.41023,0.92047 -5.42848,2.78727 -6.70722,4.14843 C 563.66975,122.04488 562,121.7009 562,117.5 c 0,-4.0108 -0.0548,-4.02434 -9.91809,-2.44824 -11.39884,1.82149 -11.55974,1.87528 -9.71575,3.24814 2.18626,1.62769 3.57772,9.68281 4.32602,25.04331 l 0.62568,12.84322 2.96607,-0.59322 C 551.91527,155.26695 555.21875,155 557.625,155 Z M 357.84264,79.043422 C 348.56049,76.176006 345.33921,71.061454 346.72879,61.397508 L 347.64869,55 h -7.77631 -7.7763 l -2.92529,4.25 c -1.60892,2.3375 -5.1538,6.333754 -7.87752,8.880564 -5.99798,5.608407 -12.84743,7.63702 -18.91756,5.602844 -4.75491,-1.593433 -6.64327,-4.472415 -3.99227,-6.086592 5.12281,-3.119237 12.19183,-8.889029 14.86721,-12.134728 l 2.98984,-3.627196 -2.18352,-2.324249 c -1.6851,-1.793705 -2.11201,-3.298104 -1.87024,-6.590601 0.43881,-5.976021 2.63796,-7.136785 6.8332,-3.606722 1.77752,1.495681 3.58382,2.588303 4.01401,2.42805 C 323.46413,41.631116 327.85406,36.1 332.78935,29.5 344.18365,14.26231 355.61264,3 359.68153,3 c 4.8052,0 11.60247,4.0583299 13.58416,8.110462 2.08975,4.273077 1.77748,7.111701 -3.67309,33.389538 -1.93938,9.35 -3.8786,21.05 -4.30938,26 -0.85402,9.813585 -1.37871,10.41604 -7.44058,8.543422 z M 362.375,73.875 c 0.34375,-1.71875 0.61187,-4.75625 0.59581,-6.75 -0.016,-1.99375 2.09455,-14.30777 4.69023,-27.364488 4.52524,-22.762759 4.65362,-23.877456 3.12032,-27.092811 C 369.1436,9.2332799 363.98122,6 360.13546,6 c -3.22563,0 -14.44418,11.234297 -24.32213,24.356266 -4.9453,6.569394 -9.22452,12.551713 -9.50938,13.294043 -0.80726,2.103671 -4.29493,1.593948 -7.89807,-1.154303 -2.07867,-1.585475 -3.52341,-2.114859 -3.93854,-1.443165 -1.14453,1.851896 0.47538,5.863524 3.04854,7.549519 1.36626,0.895213 2.48412,2.228878 2.48412,2.963701 0,2.089632 -13.1178,14.841615 -16.84848,16.378619 l -3.34848,1.379544 2.34848,1.302452 C 309.11428,74.48818 319.44529,68.755069 327.15716,56.75 L 330.20849,52 h 9.83674 c 5.4102,0 10.02277,0.3375 10.25015,0.75 0.22738,0.4125 -0.0549,4.017909 -0.62726,8.012019 -0.95097,6.636043 -0.86764,7.49803 0.96669,10 1.94054,2.646835 7.68564,6.233244 9.99019,6.236427 0.61875,8.55e-4 1.40625,-1.404696 1.75,-3.123446 z M 335.05686,48.078088 C 333.09285,46.805815 334.30503,44.273681 343.47184,30.5 351.561,18.345547 355.46061,14.060611 357.01673,15.616731 c 1.06302,1.063015 -0.90471,14.429601 -3.87209,26.302725 L 351.5,48.5 344,48.756475 c -4.125,0.141062 -8.14941,-0.164213 -8.94314,-0.678387 z M 350.89419,39.75 C 353.22377,28.50114 354.77288,20 354.49311,20 354.15463,20 343.26508,35.936822 339.63145,41.75 L 336.97491,46 h 6.31247 6.31247 z M 20.756623,77.809643 c -8.221431,-2.207658 -10.72417,-9.802167 -6.888526,-20.903093 1.83991,-5.324974 3.3805,-8.799946 12.505076,-28.206576 3.895553,-8.285269 4.265707,-9.560444 2.394787,-8.25 C 24.736783,23.27352 23,22.496089 23,17.868077 23,14.428005 23.596106,13.173953 26.560111,10.378537 31.944869,5.300057 39.008392,3.5690492 54.5,3.5315054 66.401397,3.5026625 67.92254,3.7112699 72.5,6 c 4.728857,2.3644283 7.981795,6.851539 6.234059,8.599275 -0.351065,0.351065 -5.087835,0.07125 -10.526156,-0.621799 -5.438321,-0.693055 -11.492629,-0.959042 -13.454019,-0.591083 -3.774922,0.70818 -3.359613,-0.02652 -11.393258,20.15511 -0.261549,0.657048 2.093225,1.064467 6.379163,1.103712 7.757732,0.07104 12.495755,2.017678 14.576442,5.988811 1.357728,2.591316 1.383997,2.562611 3.90087,-4.262571 2.751522,-7.461497 3.800252,-8.153585 10.461588,-6.903911 2.264075,0.424743 3.996002,1.593557 5.133899,3.464679 l 1.717195,2.823701 3.447334,-2.877962 C 91.704021,30.601442 93.410082,30 97.140797,30 103.14284,30 105,31.77103 105,37.494703 c 0,3.222862 -0.67163,5.150031 -2.58889,7.428572 C 99.391465,48.511914 95.466787,49.046075 94.5,46 c -1.610389,-5.073886 -9.033407,0.185038 -16.600163,11.760578 -2.610372,3.993318 -5.491879,9.505818 -6.40335,12.25 C 69.929212,74.7292 69.649492,75 66.34271,75 63.779273,75 62.033302,74.187148 59.800258,71.954104 57.051276,69.205122 56.79988,68.434486 57.221315,64.048526 57.47814,61.375701 59.311228,55.771354 61.294844,51.594422 L 64.901419,44 H 53.032497 c -6.527907,0 -12.554603,0.263121 -13.392658,0.584712 -2.082285,0.799048 -7.415506,13.94314 -10.101409,24.89562 -2.385601,9.727923 -2.647662,9.976481 -8.781807,8.329311 z M 26.015536,71.75 c 2.845066,-11.066504 4.419677,-15.789196 7.473477,-22.415008 l 3.302313,-7.165007 5.402294,-0.674972 c 2.971262,-0.371235 8.668348,-0.521982 12.660192,-0.334993 6.957645,0.325915 7.171067,0.269851 5.158947,-1.35521 -2.624372,-2.119539 -9.786789,-3.244696 -15.590732,-2.449177 -3.760818,0.515478 -4.421197,0.347296 -4.416473,-1.124763 0.0078,-2.425923 7.848883,-22.446317 9.421767,-24.056256 C 50.93231,10.634169 61.471603,10.214459 70.5,11.335429 l 6,0.744963 L 74,10.086951 C 69.947725,6.855763 62.81758,5.6849546 50.501932,6.228441 c -13.497781,0.5956536 -21.23733,3.4254073 -24.00454,8.776602 -2.122135,4.103757 -1.50795,4.581313 2.639828,2.052582 1.849529,-1.127582 3.70028,-2.051831 4.11278,-2.053887 1.953502,-0.0097 0.171679,5.401173 -6.366249,19.332558 -14.45081,30.792601 -15.335865,36.376445 -6.384138,40.27779 4.263391,1.858073 4.307847,1.83499 5.515923,-2.864086 z M 68,71.615795 C 68,68.667545 76.261796,53.925127 80.647978,49.046637 87.863796,41.02091 92.327322,39.327322 96.16068,43.16068 l 2.16068,2.16068 1.852,-2.287129 c 3.02977,-3.741603 3.37512,-6.930194 1.00708,-9.298238 -1.858705,-1.858703 -2.492639,-1.959031 -5.90963,-0.935276 -2.105169,0.630724 -5.365582,2.733586 -7.245362,4.673027 C 83.623768,42.015126 82,42.00845 82,37.448973 c 0,-3.106834 -0.433792,-3.732276 -3.467881,-5 -4.853294,-2.027835 -5.226956,-1.903654 -6.576536,2.18561 -0.659736,1.999021 -3.581542,8.704089 -6.492901,14.90015 C 58.468747,64.41948 58.112368,67.878485 63.25,71.01096 67.100077,73.358398 68,73.472988 68,71.615795 Z m 361.40056,5.710126 c -3.83925,-1.915221 -6.39199,-6.077412 -6.42769,-10.480213 -0.0168,-2.064196 1.7834,-6.87609 4.69972,-12.562651 2.59977,-5.069318 4.3686,-9.569318 3.93072,-10 -1.08802,-1.070152 -9.35785,8.165435 -13.44371,15.013678 -1.83723,3.079337 -4.39828,8.2098 -5.69125,11.40103 -2.01343,4.969466 -2.75859,5.844879 -5.1918,6.09935 -3.7353,0.390647 -9.33977,-3.443925 -10.60163,-7.253628 -1.27033,-3.835287 0.27217,-9.66974 4.41331,-16.693117 5.83844,-9.902027 5.82597,-12.173387 -0.0397,-7.237715 -4.57175,3.84687 -11.49078,13.199825 -16.13685,21.813329 -4.57949,8.490084 -6.50033,9.341637 -12.6348,5.601297 -6.51647,-3.973253 -5.72103,-10.387527 3.01536,-24.315306 3.52308,-5.616586 7.02429,-11.927944 7.78047,-14.025239 1.91838,-5.320736 2.82905,-5.830496 8.5272,-4.773211 3.35435,0.622395 5.48584,1.688404 6.75684,3.379253 l 1.85671,2.47004 4.14329,-2.369364 c 5.87298,-3.358494 13.79732,-3.33033 17.18874,0.06109 1.35,1.35 2.45455,3.171619 2.45455,4.048041 0,1.262246 0.88347,1.002838 4.25,-1.247894 C 434.46358,32.100524 437.52612,31 442.87274,31 c 3.78063,0 5.26021,0.512619 7.08454,2.454531 3.55016,3.77897 2.47741,9.603188 -4.70518,25.545469 -3.34523,7.425 -6.38122,14.9625 -6.74663,16.75 -0.55468,2.713388 -1.10532,3.23944 -3.33493,3.186046 -1.46879,-0.03518 -4.06529,-0.759731 -5.76998,-1.610125 z M 437.64169,69.75 c 1.17172,-3.4375 4.2045,-10.75 6.73951,-16.25 5.40726,-11.73165 5.95614,-16.577637 2.15944,-19.065328 -4.02862,-2.639656 -11.1323,-0.35058 -19.20894,6.189856 C 425.03914,42.481038 422.67664,44 422.0817,44 421.48677,44 421,42.2551 421,40.122445 c 0,-4.035453 -0.98985,-5.41507 -4.70083,-6.551839 -3.09614,-0.948427 -9.67049,1.029519 -13.14806,3.955695 -3.7786,3.179487 -6.15111,3.21657 -6.15111,0.09614 0,-2.99663 -1.86864,-4.564591 -6.29617,-5.283081 -3.27254,-0.53106 -3.5428,-0.357318 -4.64656,2.987109 -0.64456,1.953031 -3.66467,7.516042 -6.71135,12.362246 C 371.90943,59.517567 371,61.394267 371,64.911385 c 0,5.73287 8.07729,9.901108 9.35116,4.82561 1.05391,-4.199107 12.5299,-20.444718 17.77096,-25.156885 5.94342,-5.343644 9.18028,-5.79517 9.69219,-1.352012 0.20582,1.78645 -1.26114,5.618295 -4.25,11.101435 -5.30385,9.730036 -5.75755,13.568132 -2.04301,17.282681 3.86359,3.86359 6.27885,2.864784 8.94075,-3.69737 2.97073,-7.323469 8.5231,-15.915566 14.22219,-22.008359 C 428.20265,42.145023 429.97258,41 432.26851,41 c 2.91065,0 2.97993,0.111084 2.46476,3.951931 -0.29153,2.173562 -2.22313,6.739022 -4.29244,10.145467 -2.46133,4.051793 -3.91765,7.809556 -4.21141,10.866777 -0.41102,4.277538 -0.17922,4.900277 2.7375,7.354533 4.90164,4.124466 6.24014,3.573823 8.67477,-3.568708 z m 247.85792,7.88666 c -3.69506,-1.638183 -5.32191,-3.530273 -6.46631,-7.520553 -1.20571,-4.20407 0.28099,-9.020482 5.66641,-18.357207 2.45851,-4.262334 4.28801,-8.295734 4.06555,-8.963111 -0.57418,-1.722541 -10.14652,7.48423 -15.28807,14.704211 -2.35002,3.3 -5.55626,8.630686 -7.12498,11.84597 -2.84817,5.83768 -2.85767,5.84524 -6.7005,5.331972 C 654.00345,73.923534 651,70.663052 651,65.285848 c 0,-4.645628 1.75657,-8.732824 7.76476,-18.067055 2.05438,-3.191653 4.85551,-8.259057 6.22474,-11.260899 1.36922,-3.001842 2.94422,-5.781128 3.5,-6.176193 1.41542,-1.006131 8.56108,0.17382 11.2605,1.859427 1.2375,0.772738 2.25,2.262005 2.25,3.309482 0,1.738732 0.52654,1.632944 6.0493,-1.215361 7.78376,-4.014399 15.22439,-4.350426 18.08577,-0.816773 3.42971,4.235514 2.51118,10.450244 -3.27674,22.170178 C 700.03042,60.814894 696.71421,68.425 695.48898,72 c -2.46713,7.198632 -4.22671,8.191501 -9.98937,5.63666 z m 7.07275,-6.142195 c 0.63641,-2.196956 3.46055,-8.583981 6.27586,-14.193389 5.70212,-11.361256 7.45748,-17.366836 6.11114,-20.90796 -1.81147,-4.764531 -10.27704,-3.990796 -18.75949,1.714577 -5.17679,3.481954 -6.19514,3.587195 -6.21518,0.642307 -0.021,-3.092053 -1.0473,-4.443105 -4.32014,-5.687439 -4.70368,-1.788333 -5.54082,-1.282818 -8.59053,5.187439 -1.62023,3.4375 -5.21584,9.85 -7.99022,14.25 -6.47006,10.261093 -7.18363,13.491083 -3.741,16.933712 4.14841,4.148404 6.10574,3.403976 9.68563,-3.683712 5.53679,-10.962089 16.77332,-24.160172 21.60097,-25.371833 6.67718,-1.675865 6.81708,2.675071 0.42669,13.270478 -5.47376,9.075611 -6.57437,12.685908 -5.015,16.45056 1.28372,3.099176 5.39126,6.014257 7.91654,5.618286 0.80169,-0.125708 1.97832,-2.02607 2.61473,-4.223026 z M 175.38065,76.116183 C 172.28167,74.200891 170,69.70423 170,65.512123 c 0,-1.204187 2.2653,-6.821734 5.03401,-12.483438 2.7687,-5.661704 4.82448,-10.503533 4.56839,-10.75962 -1.90721,-1.90721 -13.46336,12.404857 -18.95186,23.471505 C 156.73748,73.630614 156.40428,74 153.20022,74 c -2.40608,0 -4.21665,-0.86258 -6.40595,-3.051889 -2.79973,-2.799724 -2.99881,-3.439162 -2.40946,-7.738974 0.40622,-2.963681 2.55346,-7.998315 5.83978,-13.692523 2.85854,-4.952991 6.2015,-11.482953 7.42878,-14.511026 2.15463,-5.316082 2.37391,-5.51631 6.37072,-5.817077 4.61008,-0.346918 8.4523,1.586368 9.45948,4.759719 0.61569,1.939873 0.7594,1.919359 4.66627,-0.66609 2.84839,-1.884972 5.72331,-2.790012 9.79919,-3.084834 5.06103,-0.366082 6.0424,-0.127917 8.00511,1.942731 3.54848,3.743626 2.3966,10.890207 -3.99427,24.781549 -2.89005,6.281873 -5.77754,13.481873 -6.41664,16 -1.02181,4.025997 -1.51682,4.611237 -4.10262,4.850449 -1.61734,0.149619 -4.34432,-0.595514 -6.05996,-1.655852 z M 183.0369,71.25 c 0.6556,-2.0625 3.46433,-8.925 6.24162,-15.25 2.7773,-6.325 5.25372,-13.592449 5.50316,-16.149886 0.40237,-4.125325 0.16757,-4.837259 -2.08136,-6.310816 -3.24424,-2.125708 -8.58262,-0.855977 -14.53754,3.457746 -5.3403,3.868488 -7.16278,3.878193 -7.16278,0.03814 0,-3.082715 -1.3217,-4.238578 -6.16998,-5.395819 -2.47246,-0.590155 -2.7869,-0.28599 -4.25055,4.111668 -0.86932,2.611932 -3.78182,8.407854 -6.47222,12.879827 -8.37528,13.921364 -9.07849,19.216374 -2.89724,21.815395 l 3.14031,1.320404 2.77045,-5.858097 C 163.33349,52.77176 174.77368,39 179.47368,39 c 4.04162,0 3.37436,5.221972 -1.97368,15.446079 -5.30936,10.150151 -5.71652,14.064677 -1.86364,17.917557 3.74533,3.745323 5.96207,3.411747 7.40054,-1.113636 z m 355.53053,4.803655 c -7.19104,-4.740362 -7.52487,-12.367079 -1.06197,-24.261637 2.47801,-4.56061 5.94959,-11.104518 7.71464,-14.542018 3.1726,-6.178785 3.25746,-6.25 7.44748,-6.25 5.62949,0 8.93905,1.636107 10.38863,5.13571 1.71642,4.143795 0.5074,8.447741 -4.48259,15.957444 -6.26048,9.421726 -9.52158,16.248066 -10.22952,21.413026 -0.58021,4.233107 -0.79661,4.493438 -3.73002,4.487231 -1.71275,-0.0036 -4.43374,-0.876514 -6.04665,-1.939756 z M 545.45347,73.75 c 0.21489,-0.6875 0.65694,-2.861729 0.98234,-4.831621 0.3254,-1.969892 2.09272,-6.019892 3.92737,-9 1.83466,-2.980108 4.97848,-8.091906 6.98628,-11.359551 5.4456,-8.862581 4.55394,-13.401909 -2.94507,-14.99308 -3.06326,-0.649975 -3.15881,-0.544013 -9.14293,10.138706 -8.80946,15.726483 -9.51838,17.316398 -9.63068,21.599288 -0.0836,3.189893 0.48061,4.406591 3.14944,6.791191 3.44579,3.078811 6.02807,3.719255 6.67325,1.655067 z m -413.12056,2.152705 c -2.96438,-0.858233 -7.57263,-5.210059 -8.59397,-8.115758 -0.33497,-0.953006 -1.20311,-0.743313 -3.34564,0.808122 -7.20842,5.2197 -15.52636,7.009637 -20.415286,4.393164 C 97.203198,71.503197 95.916336,65.71414 97.041816,59.779505 100.02078,44.071486 115.70935,30.54842 132.42001,29.284596 140.98696,28.636679 151,31.006017 151,33.681092 c 0,0.893872 -1.40912,4.593801 -3.13137,8.222065 -4.78375,10.077907 -7.89305,19.914827 -8.56489,27.096843 -0.33443,3.575 -1.10208,6.830609 -1.70589,7.234687 -1.27475,0.853073 -1.14299,0.861381 -5.26494,-0.331982 z M 136,71.957842 c 0,-1.123187 0.70708,-5.465356 1.57129,-9.649265 1.31571,-6.36974 3.11021,-11.17886 10.05943,-26.958402 0.89321,-2.028204 -6.44468,-3.617915 -14.53737,-3.149437 -6.2362,0.361008 -8.80201,1.059692 -13.93129,3.79357 -10.46233,5.576362 -18.38897,16.086231 -19.778531,26.224195 -0.564444,4.118065 -0.341127,4.914809 2.046891,7.302824 2.2997,2.299704 3.20526,2.583173 6.37502,1.995601 4.10459,-0.760861 8.31582,-3.128155 12.40092,-6.971038 C 123.64406,61.312018 126,61.238518 126,64.365141 c 0,3.875582 5.17147,9.226775 9.25,9.571473 0.4125,0.03486 0.75,-0.855585 0.75,-1.978772 z M 114.66667,62.333333 C 113.25033,60.916992 114.12366,54.277048 116.3546,49.5 119.43038,42.91393 123.37556,38.359213 128.08595,35.95615 132.59413,33.65625 138,33.341637 138,35.379169 c 0,2.031957 -14.56825,23.136057 -17.6375,25.550331 -2.70338,2.126473 -4.52438,2.57529 -5.69583,1.403833 z M 119.71428,57.75 c 1.1346,-1.2375 5.0205,-6.607979 8.63535,-11.934397 6.46575,-9.527188 6.52194,-9.666792 3.46123,-8.599823 -6.05388,2.110395 -13.3077,11.571262 -15.3606,20.03422 -0.80898,3.335007 0.48326,3.53296 3.26402,0.5 z m 514.58427,17.290484 c -1.7608,-1.073621 -3.90867,-3.319649 -4.77305,-4.991173 l -1.5716,-3.039133 -5.55235,3.686555 c -4.38244,2.909774 -6.76271,3.774105 -11.29662,4.102058 -5.03053,0.363876 -6.10837,0.102062 -8.6746,-2.107099 -2.62793,-2.262275 -2.92674,-3.124712 -2.89551,-8.357147 0.068,-11.395531 9.38092,-23.738153 22.94146,-30.404838 6.6656,-3.276967 7.46722,-3.429707 18,-3.429707 10.62703,0 17.52372,1.43268 17.52372,3.640281 0,0.493703 -2.24158,5.544909 -4.9813,11.224904 -4.9076,10.174475 -7.2393,17.549595 -8.49985,26.884815 -0.61311,4.540553 -0.782,4.749835 -3.83012,4.746262 -1.7538,-0.0021 -4.62938,-0.882156 -6.39018,-1.955778 z m 10.15151,-16.501566 c 0.80809,-2.771405 3.47784,-9.161142 5.93278,-14.199416 l 4.46353,-9.160498 -2.67319,-1.045045 c -15.78869,-6.172375 -38.92254,3.670957 -47.10336,20.042235 -3.3898,6.783591 -3.91273,12.175369 -1.51312,15.6013 C 604.77259,71.513408 606.09709,72 609.60636,72 c 4.88053,0 8.87022,-1.684245 14.53754,-6.137015 C 628.64487,62.326614 631,62.1556 631,65.365141 c 0,3.34803 3.56506,7.463827 7.31291,8.442633 l 3.18709,0.832353 0.7404,-5.531145 c 0.40723,-3.04213 1.40157,-7.798659 2.20966,-10.570064 z m -26.3255,3.693826 C 616.9447,60.028147 617.92756,54.957753 620.49581,50 c 4.61104,-8.901196 11.3086,-14.305464 19.31569,-15.585848 3.49491,-0.558859 4.1885,-0.396804 4.1885,0.97863 0,1.73194 -15.31407,22.930206 -18.59434,25.738937 -3.22194,2.758785 -6.15641,3.202526 -7.2811,1.101025 z m 13.876,-14.043659 c 4.32176,-5.865262 7.71327,-10.808593 7.53668,-10.98518 -0.17659,-0.176587 -1.83221,0.313865 -3.67915,1.089893 -6.27315,2.635775 -15.7651,15.217716 -15.83613,20.991386 -0.043,3.493523 3.96201,-0.216405 11.9786,-11.096099 z M 495.5,75.078182 c -3.81001,-1.604248 -5.81993,-4.868985 -5.75229,-9.343496 0.0481,-3.178719 1.8624,-7.896819 7.15833,-18.61485 C 500.80772,39.223529 504,32.189404 504,31.488446 c 0,-2.705699 4.57654,-2.81242 11.30371,-0.263593 1.84452,0.698861 2.9893,1.990184 3.34616,3.774517 l 0.54245,2.712231 3.15384,-2.886844 c 11.85953,-10.855534 26.77302,-0.09778 15.49675,11.178488 -3.48968,3.489676 -5.86011,3.80012 -7.61084,0.996755 -0.71628,-1.146952 -2.33202,-2 -3.78816,-2 -4.92084,0 -16.9188,14.463116 -21.31395,25.693201 -1.59511,4.075688 -2.31844,4.838763 -4.75561,5.016952 C 498.79346,75.825737 496.6,75.54135 495.5,75.078182 Z M 504.36581,65.75 c 1.92796,-3.9875 5.68333,-9.939805 8.34527,-13.227345 8.14569,-10.060035 14.23716,-12.798815 18.8429,-8.471941 l 2.18289,2.050714 2.63156,-3.12744 c 3.00185,-3.567487 3.326,-6.136701 1.06014,-8.402559 -3.1293,-3.129297 -7.72918,-1.892018 -15.09687,4.060763 C 520.03914,40.484487 517.90164,42 517.5817,42 517.26177,42 517,40.719744 517,39.154988 c 0,-3.424676 -2.50004,-5.904996 -6.82351,-6.76969 -2.92807,-0.585614 -3.28641,-0.36843 -4.32962,2.624132 -0.62554,1.794423 -3.7334,8.263884 -6.90635,14.376579 -7.30417,14.071488 -8.06784,17.577576 -4.58687,21.058555 4.2856,4.285594 6.07621,3.445999 10.01216,-4.694564 z M 566.5,75.288292 C 553.31172,72.647515 552.49159,60.143855 564.64561,47.01607 571.11388,40.029567 577.85307,35.531065 586.61678,32.350008 598.07075,28.192441 609,29.730516 609,35.5 c 0,3.919923 -7.00416,7.095844 -9.70116,4.398837 -3.61858,-3.61858 -15.01415,6.09223 -20.32636,17.321236 C 575.50238,64.555216 575.32299,66 577.88235,66 c 2.09232,0 9.25448,-6.730194 11.86492,-11.149311 2.0859,-3.531142 4.68512,-3.646601 6.87438,-0.305364 3.74558,5.716463 -2.48393,14.420974 -13.12165,18.334949 -5.20701,1.915836 -13.5536,3.098114 -17,2.408018 z m 18.39017,-6.460633 c 7.36104,-3.761827 11.0373,-8.434067 9.44462,-12.003389 -0.84003,-1.882578 -1.27831,-1.58082 -5.14783,3.544332 C 584.715,66.291664 580.74971,69 576.54966,69 574.20841,69 574,68.645228 574,64.659722 c 0,-9.418534 11.27737,-25.164503 19.86592,-27.737696 3.39577,-1.017398 4.62189,-0.998919 6.6764,0.100623 2.18428,1.168992 2.7383,1.125307 4.19433,-0.330732 2.78854,-2.788537 0.3039,-3.976504 -7.40416,-3.540102 C 580.28037,34.117243 559,51.532489 559,64.52203 c 0,3.056186 2.60212,6.452966 6,7.832332 3.67224,1.490743 13.47233,-0.246901 19.89017,-3.526703 z m -386.56143,4.71458 c -4.07924,-1.774441 -5.68521,-4.870064 -5.55235,-10.702575 0.395,-17.341126 28.63267,-38.150152 44.61278,-32.876241 3.20521,1.057814 3.61083,1.573256 3.61083,4.588449 0,2.784978 -0.5567,3.684651 -3.09093,4.995148 -2.8474,1.472448 -3.23569,1.467369 -4.92833,-0.06445 -2.29311,-2.075229 -4.95318,-1.323672 -9.52614,2.69144 -6.24308,5.481499 -13.9779,20.702698 -11.6853,22.995293 1.32751,1.327513 7.30114,-3.988466 10.92157,-9.719184 1.54502,-2.445597 3.30189,-4.447344 3.90414,-4.448328 1.93461,-0.0032 4.40499,3.572941 4.40499,6.376613 0,6.666881 -6.07058,12.608347 -16.05847,15.716928 -7.16278,2.229309 -12.20352,2.364913 -16.61279,0.44691 z m 17.19529,-3.637113 C 222.55626,67.274031 228,62.064827 228,57.966667 228,56.335 227.55,55 227,55 c -0.55,0 -1,0.360172 -1,0.800383 0,0.44021 -2.28599,3.36521 -5.07999,6.5 -4.30628,4.831544 -5.60086,5.699617 -8.5,5.699617 -3.357,0 -3.42,-0.0783 -3.41922,-4.25 0.002,-9.009864 10.87733,-25.234554 18.63024,-27.793245 2.82395,-0.931986 3.87856,-0.852881 5.84991,0.438798 2.19118,1.435718 2.54634,1.43431 3.9965,-0.01585 1.29379,-1.293793 1.35661,-1.874733 0.33575,-3.104796 -0.95961,-1.15626 -2.68089,-1.398809 -7.29718,-1.028259 -17.85692,1.433383 -39.36676,23.042592 -34.53879,34.698344 2.22059,5.360977 9.98663,6.537051 19.54681,2.960131 z M 239,73.752819 c -10.34962,-3.704629 -8.33402,-21.422828 3.79524,-33.362278 12.13287,-11.942996 31.14893,-15.200552 35.83498,-6.138728 4.88847,9.453256 -7.666,31.895349 -21.18917,37.877289 -5.75463,2.545546 -13.8696,3.260061 -18.44105,1.623717 z m 17.99079,-4.748122 c 11.28126,-5.755266 21.91897,-23.259459 19.64396,-32.323822 -0.85564,-3.409142 -5.47788,-5.08008 -12.14835,-4.391627 C 250.07244,33.7769 235,49.52081 235,63.089245 c 0,2.976373 0.65228,4.281821 3.21826,6.440959 2.88434,2.427005 3.79976,2.655263 8.8224,2.199826 3.08227,-0.279491 7.55983,-1.50589 9.95013,-2.725333 z m -7.99829,-5.018711 c -3.51454,-6.566975 7.95154,-26.427933 16.49527,-28.572274 5.2452,-1.316459 6.64912,2.490812 4.07386,11.047774 -3.96901,13.188002 -16.96446,24.25988 -20.56913,17.5245 z m 9.58464,-4.629792 C 265.07404,52.859294 270.61593,38 266.54211,38 c -2.12504,0 -8.82436,6.791965 -11.83631,12 -1.43136,2.475 -2.90824,6.4125 -3.28195,8.75 -0.61768,3.863508 -0.489,4.25 1.41501,4.25 1.15196,0 3.73419,-1.639713 5.73828,-3.643806 z M 450.03786,72.19171 c -2.55451,-2.554514 -3.03437,-3.805868 -3.0159,-7.864787 0.0312,-6.852878 3.04508,-12.649631 10.24387,-19.702467 16.38596,-16.053725 43.34785,-19.800955 40.22678,-5.590817 -1.41909,6.461083 -11.96202,14.5142 -21.49261,16.416922 -6.064,1.210639 -6.66921,1.52802 -7.84824,4.115714 -1.29614,2.844716 -1.54439,7.435682 -0.40176,7.429987 1.90158,-0.0095 7.3516,-4.236897 10.83554,-8.404804 C 484.02141,52.088415 488,52.7112 488,60.065141 c 0,4.886854 -2.77198,8.186946 -9.74061,11.59638 -4.75479,2.326301 -7.2984,2.849685 -15.4382,3.176622 -9.7386,0.391155 -9.7476,0.389292 -12.78333,-2.646433 z m 18.16292,-0.300133 C 478.61094,69.714112 487.12962,63.107313 485.38593,58.563345 485.05598,57.703505 484.56541,57 484.29577,57 c -0.26964,0 -2.57135,2.314686 -5.11492,5.143746 -4.92008,5.472315 -10.09536,8.335552 -13.25425,7.332956 -2.42602,-0.769986 -2.58754,-5.784384 -0.36523,-11.33847 1.35491,-3.386253 2.0808,-3.985302 5.48965,-4.530399 11.04492,-1.766155 22.16727,-8.77225 23.49052,-14.796946 1.01076,-4.601983 -1.42442,-6.123776 -8.79003,-5.49306 -22.6226,1.937173 -46.98409,31.462556 -31.50912,38.188103 3.99521,1.736355 7.09182,1.821909 13.95839,0.385647 z M 471,50.140731 c 0,-2.382003 5.48044,-9.312626 9.99503,-12.639822 4.3462,-3.203097 7.39305,-2.965278 7.80792,0.609442 0.42007,3.619576 -4.0367,8.623862 -10.26208,11.522778 C 472.43859,52.47472 471,52.571556 471,50.140731 Z m 13.10436,-7.751816 c 1.16048,-1.235273 1.91234,-2.838802 1.67081,-3.563397 -0.27806,-0.834193 -2.60993,0.825992 -6.35716,4.526009 l -5.91801,5.843455 4.2472,-2.280057 c 2.33596,-1.254032 5.19668,-3.290736 6.35716,-4.52601 z m 73.0842,-16.42787 C 553.93499,22.92988 554.16503,16.801946 557.63486,14.07258 561.24045,11.23642 569.19622,11.196223 572,14 c 2.97282,2.972817 2.66476,8.479421 -0.64602,11.547749 -3.48703,3.231665 -10.90786,3.448178 -14.16542,0.413296 z M 567.01036,25 C 568.69969,25 571,21.800972 571,19.451624 c 0,-3.340383 -4.01327,-5.827256 -7.99324,-4.953108 -3.82557,0.840235 -6.82598,4.971575 -5.33979,7.352475 1.34956,2.161994 5.4787,4.259123 7.16482,3.638897 C 565.56427,25.22045 566.54463,25 567.01036,25 Z"
       style="fill: red; stroke: white;" />
  </g>
</svg>
